HIERARCHY
ROOT Hips
{
	OFFSET 0.000000 0.000000 0.000000 
	CHANNELS 6 Xposition Yposition Zposition Zrotation Yrotation Xrotation
	JOINT LeftUpLeg
	{
		OFFSET 1.363060 -1.794630 0.839290 
		CHANNELS 3 Zrotation Yrotation Xrotation
		JOINT LeftLeg
		{
			OFFSET 2.448110 -6.726130 0.000000 
			CHANNELS 3 Zrotation Yrotation Xrotation
			JOINT LeftFoot
			{
				OFFSET 2.562200 -7.039590 0.000000 
				CHANNELS 3 Zrotation Yrotation Xrotation
				JOINT LeftToeBase
				{
					OFFSET 0.157640 -0.433110 2.322550 
					CHANNELS 3 Zrotation Yrotation Xrotation
					End Site
					{
						OFFSET 0.000000 0.000000 0.000000 
					}
				}
			}
		}
	}
	JOINT RightUpLeg
	{
		OFFSET -1.305520 -1.794630 0.839290 
		CHANNELS 3 Zrotation Yrotation Xrotation
		JOINT RightLeg
		{
			OFFSET -2.542530 -6.985550 0.000000 
			CHANNELS 3 Zrotation Yrotation Xrotation
			JOINT RightFoot
			{
				OFFSET -2.568260 -7.056230 0.000000 
				CHANNELS 3 Zrotation Yrotation Xrotation
				JOINT RightToeBase
				{
					OFFSET -0.164730 -0.452590 2.363150 
					CHANNELS 3 Zrotation Yrotation Xrotation
					End Site
					{
						OFFSET 0.000000 0.000000 0.000000 
					}
				}
			}
		}
	}
	JOINT Spine
	{
		OFFSET 0.028270 2.035590 -0.193380 
		CHANNELS 3 Zrotation Yrotation Xrotation
		JOINT Spine1
		{
			OFFSET 0.056720 2.048850 -0.042750 
			CHANNELS 3 Zrotation Yrotation Xrotation
			JOINT Neck1
			{
				OFFSET -0.054170 1.746240 0.172020 
				CHANNELS 3 Zrotation Yrotation Xrotation
				JOINT Head
				{
					OFFSET 0.104070 1.761360 -0.123970 
					CHANNELS 3 Zrotation Yrotation Xrotation
					End Site
					{
						OFFSET 0.000000 0.000000 0.000000 
					}
				}
			}
			JOINT LeftArm
			{
				OFFSET 3.362410 1.200890 -0.311210 
				CHANNELS 3 Zrotation Yrotation Xrotation
				JOINT LeftForeArm
				{
					OFFSET 4.983000 -0.000000 -0.000000 
					CHANNELS 3 Zrotation Yrotation Xrotation
					JOINT LeftHand
					{
						OFFSET 3.483560 -0.000000 -0.000000 
						CHANNELS 3 Zrotation Yrotation Xrotation
						JOINT LeftHandIndex1
						{
							OFFSET 0.715260 -0.000000 -0.000000 
							CHANNELS 3 Zrotation Yrotation Xrotation
							End Site
							{
								OFFSET 0.000000 0.000000 0.000000 
							}
						}
					}
				}
			}
			JOINT RightArm
			{
				OFFSET -3.136600 1.374050 -0.404650 
				CHANNELS 3 Zrotation Yrotation Xrotation
				JOINT RightForeArm
				{
					OFFSET -5.241900 -0.000000 -0.000000 
					CHANNELS 3 Zrotation Yrotation Xrotation
					JOINT RightHand
					{
						OFFSET -3.444170 -0.000000 -0.000000 
						CHANNELS 3 Zrotation Yrotation Xrotation
						JOINT RightHandIndex1
						{
							OFFSET -0.622530 -0.000000 -0.000000 
							CHANNELS 3 Zrotation Yrotation Xrotation
							End Site
							{
								OFFSET 0.000000 0.000000 0.000000 
							}
						}
					}
				}
			}
		}
	}
}
MOTION
Frames: 13
Frame Time: 0.041667
18.162363 17.888441 -15.452429 3.924567 -4.819770 6.941251 -13.555776 2.290646 2.797104 -1.153318 -0.305973 1.696519 2.391576 -14.448313 12.375397 0.101600 2.055300 5.658400 5.729419 18.835778 -29.875732 -0.576835 -5.887470 17.760575 3.858431 -14.850240 1.034920 -0.089100 1.925400 -5.299600 -1.981147 0.310074 2.884422 0.739373 -0.370314 2.450854 5.041889 -7.897042 37.241216 0.993800 -2.874700 16.287000 -83.260437 3.479803 59.530408 110.556754 -59.209064 -83.057817 0.977100 -1.820653 33.885939 -7.125000 0.000000 0.000000 84.560461 -1.474523 65.597161 -88.726906 59.224875 -66.006621 -0.833290 2.306257 -78.577415 7.125000 0.000000 0.000000 
18.131784 17.883675 -15.301519 4.051107 -4.771166 7.014137 -13.619810 2.336265 3.287541 -1.141036 -0.305000 1.697814 2.372492 -14.365338 12.325727 0.041800 1.318900 3.626600 5.805018 19.060004 -29.673289 -0.643712 -6.040612 18.260210 3.618954 -14.097837 1.406175 -0.064400 1.636800 -4.503000 -1.712380 0.095794 2.802534 1.059828 -0.496109 2.566265 4.964775 -7.802903 37.276013 1.049000 -2.911600 16.208800 -83.382699 3.238443 60.231811 108.377375 -59.473793 -81.560554 0.924797 -1.876649 33.822070 -7.125000 0.000000 0.000000 84.242277 -1.900258 65.397495 -88.753332 59.213274 -65.913229 -0.592693 2.376370 -78.778373 7.125000 0.000000 0.000000 
18.101304 17.848728 -15.147729 4.292140 -4.735717 7.095284 -13.665308 2.237344 3.466067 -1.163009 -0.355410 1.632930 2.352072 -13.812218 15.056440 0.856400 5.901500 16.499000 5.720595 19.348940 -29.527392 -0.716576 -6.190473 18.731004 3.454480 -13.605024 1.890651 -0.204200 2.909400 -8.026700 -1.742723 0.116116 2.606581 1.115731 -0.492909 2.656236 4.942593 -8.042044 37.462734 1.011800 -3.012600 16.127800 -83.114075 3.398963 61.307338 106.411470 -59.649776 -80.194921 0.853297 -1.925643 34.180606 -7.125000 0.000000 0.000000 84.385669 -2.659032 64.630746 -88.983665 59.294763 -66.257492 -1.713162 1.913767 -78.794838 7.125000 0.000000 0.000000 
18.071618 17.846345 -14.990564 4.386763 -4.660229 7.149565 -13.665894 2.217760 3.915178 -1.158005 -0.355886 1.620795 2.335130 -13.533510 15.471393 0.848400 5.874700 16.421400 5.811068 19.535345 -29.230556 -0.765030 -6.273555 18.996531 3.320061 -13.262391 2.826743 -0.442700 4.269100 -11.835100 -1.829290 0.178679 2.904405 0.978300 -0.483301 3.035578 4.826145 -8.471145 37.740668 0.826500 -3.126900 16.488800 -82.779514 2.613814 62.034686 104.678750 -59.750668 -78.954989 0.805287 -1.965461 34.641235 -7.125000 0.000000 0.000000 84.689684 -2.501747 63.639050 -89.353829 59.313343 -66.536487 -1.185604 2.181388 -78.271417 7.125000 0.000000 0.000000 
18.038557 17.864712 -14.829924 4.419669 -4.591379 7.193528 -13.679121 2.272726 4.481269 -1.136258 -0.334017 1.640431 2.311134 -13.566879 14.545851 0.215900 2.991200 8.254300 5.782364 20.169485 -28.727162 -0.829392 -6.332468 19.176317 3.339085 -13.532385 4.359357 -0.361700 3.863600 -10.693400 -1.543741 -0.009920 2.966502 1.227683 -0.598040 3.254112 4.821012 -8.482712 37.754424 0.887100 -3.188500 16.496700 -83.139320 2.475488 62.075892 103.252657 -59.810133 -77.960173 0.759002 -2.003789 35.092730 -7.125000 0.000000 0.000000 84.381781 -2.910863 63.225929 -89.830188 59.361978 -66.896642 -1.004983 2.232184 -77.723546 7.125000 0.000000 0.000000 
18.004602 17.896681 -14.677227 4.447636 -4.615969 7.233461 -13.623242 2.338629 4.854819 -1.126810 -0.327766 1.639244 2.300619 -13.464554 14.616392 0.043100 1.340100 3.685100 5.597724 21.285705 -28.032954 -0.895857 -6.324166 19.132097 3.630027 -14.801314 6.017153 -0.170300 2.658300 -7.328900 -1.172831 -0.188245 2.978020 1.590799 -0.704848 3.431385 4.797126 -8.381068 37.763841 0.971900 -3.220100 16.444600 -83.541255 2.558338 62.228002 102.087651 -59.843435 -77.173478 0.685847 -2.037683 35.766335 -7.125000 0.000000 0.000000 83.925935 -3.380913 63.015624 -90.047858 59.381800 -67.113362 -1.056998 2.181839 -77.256291 7.125000 0.000000 0.000000 
17.981767 17.915347 -14.534358 4.506359 -4.626635 7.278186 -13.519454 2.323574 5.103733 -1.135052 -0.345566 1.603987 2.307876 -13.091281 16.181543 0.105800 2.097000 5.773800 5.429146 21.965400 -27.662259 -0.954114 -6.342651 19.136257 3.723777 -15.511681 7.739601 -0.040700 1.302500 -3.581600 -1.073913 -0.214462 2.946824 1.585059 -0.712588 3.447052 4.625045 -8.442072 37.723210 0.879300 -3.262100 16.338800 -83.642255 2.645527 62.794355 100.918842 -59.857211 -76.376807 0.592933 -2.066333 36.597477 -7.125000 0.000000 0.000000 83.864866 -3.742042 62.618913 -90.092077 59.384163 -67.157379 -1.089282 2.161338 -76.770842 7.125000 0.000000 0.000000 
17.961910 17.939770 -14.382951 4.369142 -4.599151 7.315563 -13.197416 2.288129 5.390298 -1.149123 -0.355169 1.558619 2.333774 -12.301768 18.208914 0.417100 4.145500 11.486300 5.458277 22.592381 -27.210104 -0.990532 -6.355711 19.237555 3.658021 -15.442500 8.480123 -0.018200 -0.870000 2.391200 -1.250654 0.119786 3.009677 1.134370 -0.524814 3.521555 4.512766 -9.060804 37.691713 0.631200 -3.432800 16.274800 -83.127244 2.368885 64.042717 99.439016 -59.833617 -75.339973 0.474716 -2.085292 37.160398 -7.125000 0.000000 0.000000 84.388300 -3.936650 61.313863 -90.179776 59.392933 -67.201859 -1.057354 2.182574 -76.297421 7.125000 0.000000 0.000000 
17.932820 17.953868 -14.223602 3.945916 -4.607531 7.324567 -12.624288 2.358625 5.733727 -1.155073 -0.345084 1.529688 2.360319 -11.357345 19.744299 0.583300 4.890400 13.596100 5.896081 23.440660 -26.574018 -1.059897 -6.405296 19.507517 3.834178 -15.957608 8.249916 -0.182400 -2.750600 7.585100 -0.636023 -0.344984 3.017588 1.333105 -0.759613 3.703329 4.682209 -8.606500 37.749022 0.931700 -3.364400 16.305000 -83.851720 2.569613 63.610770 98.097218 -59.802492 -74.377662 0.360917 -2.117415 38.034119 -7.125000 0.000000 0.000000 83.601715 -4.017691 61.770599 -90.125522 59.375565 -67.128703 -1.037137 2.185352 -75.999494 7.125000 0.000000 0.000000 
17.905220 17.962903 -14.071401 3.442534 -4.620720 7.335919 -12.038882 2.469272 6.084747 -1.152515 -0.335387 1.516414 2.412596 -11.010858 20.889189 0.128900 2.314400 6.375300 6.778769 23.370542 -26.213448 -1.133690 -6.516588 19.855006 3.957408 -16.480905 8.513157 -0.200800 -2.885200 7.959200 -0.230209 -0.493171 3.023494 1.285350 -0.823734 3.772265 4.634446 -8.583699 38.014013 0.963000 -3.394100 16.476400 -84.051973 2.540933 63.924977 96.849183 -59.753669 -73.429421 0.265373 -2.143279 38.721864 -7.125000 0.000000 0.000000 83.293743 -4.198748 61.829464 -89.952072 59.348086 -66.962874 -1.026392 2.192762 -75.600825 7.125000 0.000000 0.000000 
17.884271 17.972037 -13.932305 2.754394 -4.601054 7.338345 -11.249467 2.538403 6.320412 -1.152001 -0.327517 1.508072 2.515851 -11.074905 22.216851 0.001700 -0.268800 -0.738600 8.072481 22.475957 -26.098210 -1.175985 -6.644409 20.254445 3.744989 -15.948810 9.115654 -0.127700 -2.303600 6.345500 0.142725 -0.596679 2.961219 1.069059 -0.850266 3.658403 4.100319 -8.542329 38.468169 0.677700 -3.383400 16.702300 -84.180257 2.573237 64.377905 95.432044 -59.668591 -72.332461 0.175690 -2.165927 39.137231 -7.125000 0.000000 0.000000 82.999970 -4.510279 61.833273 -90.007072 59.351263 -66.997193 -1.011330 2.192913 -75.302241 7.125000 0.000000 0.000000 
17.870669 17.982958 -13.796188 2.199219 -4.689826 7.293942 -10.506801 2.107959 4.074808 -1.112239 1.415260 6.168318 2.639545 -10.511283 23.038074 0.218500 3.008900 8.303500 9.130946 21.387007 -26.025059 -1.184710 -6.720253 20.599838 3.268486 -14.452792 9.793412 -0.163100 -2.602100 7.172700 0.645121 -0.911045 2.853954 1.050842 -0.972401 3.530350 3.775454 -8.178113 38.574075 0.643700 -3.326700 16.662200 -84.777926 2.749113 64.256196 93.875010 -59.538762 -71.169401 0.084988 -2.185465 39.674555 -7.125000 0.000000 0.000000 82.368693 -4.745493 62.175337 -90.000809 59.345421 -66.968441 -1.020546 2.187981 -75.012863 7.125000 0.000000 0.000000 
17.864414 18.004801 -13.654709 2.127368 -4.733340 7.288585 -10.328034 1.771357 2.334458 -0.966142 2.835835 9.974212 2.656413 -8.924884 24.270060 0.961000 6.242100 17.488400 9.525338 20.355682 -25.995084 -1.173014 -6.780528 20.858815 2.733593 -12.753827 10.582552 -0.282400 -3.417900 9.444500 0.764079 -0.992999 2.903031 0.889527 -0.989920 3.600837 3.632553 -8.170796 38.455363 0.587800 -3.349900 16.549000 -84.709193 2.392768 64.744369 92.696804 -59.414571 -70.261914 0.002537 -2.187066 39.802673 -7.125000 0.000000 0.000000 82.220719 -4.704220 61.843481 -89.863609 59.328250 -66.820460 -1.113752 2.170380 -74.588399 7.125000 0.000000 0.000000 
